<!-- <svg xmlns="http://www.w3.org/2000/svg" version="1.1" xmlns:xlink="http://www.w3.org/1999/xlink"
  xmlns:svgjs="http://svgjs.com/svgjs" width="512" height="512" x="0" y="0" viewBox="0 0 512 512"
  style="enable-background:new 0 0 512 512" xml:space="preserve">
  <g>
    <g xmlns="http://www.w3.org/2000/svg">
      <path
        d="m307.148 35.148-104.067 104.066c-.201.2-.326.443-.526.645 25.637-3.734 51.974-1.174 76.388 8.346l70.63-70.63c23.399-23.399 61.454-23.399 84.853 0 23.399 23.397 23.399 61.454 0 84.851-3.99 3.992-110.083 110.085-104.066 104.066-23.584 23.586-62.276 22.577-84.853 0-11.693-11.693-30.731-11.693-42.426 0l-18.214 18.214c5.052 8.584 10.844 16.844 18.214 24.214 44.44 44.44 120.934 47.99 169.061.526.201-.2.443-.326.645-.526l104.066-104.066c46.862-46.864 46.862-122.842 0-169.706-46.864-46.864-122.841-46.864-169.705 0z"
        fill="#ffffff" data-original="#000000"></path>
      <path
        d="m233.285 363.568-70.858 70.858c-23.397 23.399-61.454 23.399-84.851 0-23.399-23.399-23.399-61.454 0-84.853 3.99-3.99 110.31-110.31 104.293-104.293 23.584-23.584 62.276-22.577 84.853 0 11.693 11.695 30.732 11.695 42.426 0l18.214-18.214c-5.052-8.584-10.844-16.844-18.214-24.212-44.355-44.357-120.793-48.131-169.061-.527-.201.2-.443.326-.645.527l-104.294 104.294c-46.862 46.862-46.864 122.842 0 169.706 46.864 46.862 122.844 46.862 169.706 0l104.293-104.295c.201-.2.326-.441.526-.645-25.637 3.734-51.973 1.174-76.388-8.346z"
        fill="#ffffff" data-original="#000000"></path>
    </g>
  </g>
</svg> -->
<svg xmlns="http://www.w3.org/2000/svg" version="1.1" xmlns:xlink="http://www.w3.org/1999/xlink"
  xmlns:svgjs="http://svgjs.com/svgjs" width="512" height="512" x="0" y="0" viewBox="0 0 512 512"
  style="enable-background:new 0 0 512 512" xml:space="preserve" class="">
  <g>
    <g xmlns="http://www.w3.org/2000/svg">
      <g>
        <path
          d="M488.727,0H302.545c-12.853,0-23.273,10.42-23.273,23.273c0,12.853,10.42,23.273,23.273,23.273h129.997L192.999,286.09    c-9.089,9.089-9.089,23.823,0,32.912c4.543,4.544,10.499,6.816,16.455,6.816c5.956,0,11.913-2.271,16.457-6.817L465.455,79.458    v129.997c0,12.853,10.42,23.273,23.273,23.273c12.853,0,23.273-10.42,23.273-23.273V23.273C512,10.42,501.58,0,488.727,0z"
          fill="#ffffff" data-original="#000000"></path>
      </g>
    </g>
    <g xmlns="http://www.w3.org/2000/svg">
      <g>
        <path
          d="M395.636,232.727c-12.853,0-23.273,10.42-23.273,23.273v209.455H46.545V139.636H256c12.853,0,23.273-10.42,23.273-23.273    S268.853,93.091,256,93.091H23.273C10.42,93.091,0,103.511,0,116.364v372.364C0,501.58,10.42,512,23.273,512h372.364    c12.853,0,23.273-10.42,23.273-23.273V256C418.909,243.147,408.489,232.727,395.636,232.727z"
          fill="#ffffff" data-original="#000000"></path>
      </g>
    </g>
  </g>
</svg>